<svg width="24" height="24" viewBox="0 0 24 24" fill="none" xmlns="http://www.w3.org/2000/svg">
<path d="M15.113 3.21001L15.207 3.29301L20.707 8.79301C20.8756 8.96248 20.9779 9.18674 20.9953 9.42514C21.0128 9.66354 20.9443 9.90031 20.8022 10.0926C20.6602 10.2848 20.454 10.4198 20.2209 10.4731C19.9879 10.5264 19.7435 10.4944 19.532 10.383L16.36 13.554L14.936 17.351C14.8985 17.4512 14.8452 17.5447 14.778 17.628L14.708 17.708L13.208 19.208C13.0357 19.38 12.8065 19.4833 12.5635 19.4984C12.3205 19.5135 12.0803 19.4394 11.888 19.29L11.793 19.207L9.00001 16.415L5.20701 20.207C5.02705 20.3864 4.78557 20.4905 4.53162 20.4982C4.27767 20.506 4.03029 20.4168 3.83973 20.2488C3.64916 20.0807 3.5297 19.8465 3.50561 19.5935C3.48151 19.3406 3.55459 19.088 3.71001 18.887L3.79301 18.793L7.58501 15L4.79301 12.207C4.62083 12.0348 4.5174 11.8057 4.50212 11.5627C4.48684 11.3197 4.56076 11.0794 4.71001 10.887L4.79301 10.793L6.29301 9.29301C6.36846 9.21729 6.45556 9.15415 6.55101 9.10601L6.64901 9.06401L10.445 7.63901L13.616 4.46901C13.5079 4.26684 13.4725 4.03366 13.5158 3.80851C13.5591 3.58337 13.6784 3.37994 13.8539 3.23231C14.0293 3.08467 14.2501 3.00179 14.4793 2.99755C14.7085 2.99331 14.9323 3.06896 15.113 3.21001Z" fill="#DBDBF0"/>
</svg>
