<svg width="40" height="40" viewBox="0 0 40 40" fill="none" xmlns="http://www.w3.org/2000/svg">
<path d="M11.6666 27.5L3.33331 22.5L11.6666 17.5L20 22.5V31.6667L11.6666 36.6667V27.5Z" stroke="#DBDBF0" stroke-width="3.33333" stroke-linecap="round" stroke-linejoin="round"/>
<path d="M3.33331 22.5V31.6667L11.6666 36.6667" stroke="#DBDBF0" stroke-width="3.33333" stroke-linecap="round" stroke-linejoin="round"/>
<path d="M11.6667 27.575L20 22.525" stroke="#DBDBF0" stroke-width="3.33333" stroke-linecap="round" stroke-linejoin="round"/>
<path d="M28.3333 27.5L20 22.5L28.3333 17.5L36.6667 22.5V31.6667L28.3333 36.6667V27.5Z" stroke="#DBDBF0" stroke-width="3.33333" stroke-linecap="round" stroke-linejoin="round"/>
<path d="M20 31.6667L28.3333 36.6667" stroke="#DBDBF0" stroke-width="3.33333" stroke-linecap="round" stroke-linejoin="round"/>
<path d="M28.3333 27.5L36.6666 22.5" stroke="#DBDBF0" stroke-width="3.33333" stroke-linecap="round" stroke-linejoin="round"/>
<path d="M20 22.5V13.3333L11.6667 8.33331L20 3.33331L28.3334 8.33331V17.5" stroke="#DBDBF0" stroke-width="3.33333" stroke-linecap="round" stroke-linejoin="round"/>
<path d="M11.6667 8.38336V17.475" stroke="#DBDBF0" stroke-width="3.33333" stroke-linecap="round" stroke-linejoin="round"/>
<path d="M20 13.3333L28.3333 8.33331" stroke="#DBDBF0" stroke-width="3.33333" stroke-linecap="round" stroke-linejoin="round"/>
</svg>
