<svg width="40" height="40" viewBox="0 0 40 40" fill="none" xmlns="http://www.w3.org/2000/svg">
<path d="M6.66669 21.6667C9.63851 22.0199 12.4051 23.3626 14.5213 25.4788C16.6375 27.5949 17.9802 30.3615 18.3334 33.3334C19.8066 32.484 21.0388 31.2731 21.9137 29.8149C22.7886 28.3568 23.2772 26.6996 23.3334 25C26.1319 24.0155 28.5756 22.2233 30.3556 19.85C32.1356 17.4767 33.1718 14.6289 33.3334 11.6667C33.3334 10.3406 32.8066 9.06884 31.8689 8.13115C30.9312 7.19347 29.6594 6.66669 28.3334 6.66669C25.3711 6.8282 22.5233 7.86446 20.15 9.64444C17.7767 11.4244 15.9845 13.8682 15 16.6667C13.3005 16.7228 11.6433 17.2114 10.1851 18.0863C8.72697 18.9612 7.516 20.1935 6.66669 21.6667Z" stroke="#DBDBF0" stroke-width="3.33333" stroke-linecap="round" stroke-linejoin="round"/>
<path d="M11.6667 23.3333C9.93208 24.3126 8.52945 25.7876 7.63862 27.5693C6.74779 29.3509 6.40935 31.358 6.6667 33.3333C8.64196 33.5907 10.6491 33.2522 12.4307 32.3614C14.2124 31.4706 15.6874 30.0679 16.6667 28.3333" stroke="#DBDBF0" stroke-width="3.33333" stroke-linecap="round" stroke-linejoin="round"/>
<path d="M23.3333 15C23.3333 15.442 23.5089 15.8659 23.8215 16.1785C24.134 16.4911 24.558 16.6666 25 16.6666C25.442 16.6666 25.8659 16.4911 26.1785 16.1785C26.4911 15.8659 26.6666 15.442 26.6666 15C26.6666 14.558 26.4911 14.134 26.1785 13.8215C25.8659 13.5089 25.442 13.3333 25 13.3333C24.558 13.3333 24.134 13.5089 23.8215 13.8215C23.5089 14.134 23.3333 14.558 23.3333 15Z" stroke="#DBDBF0" stroke-width="3.33333" stroke-linecap="round" stroke-linejoin="round"/>
</svg>
